<svg width="28" height="26" viewBox="0 0 28 26" fill="none" xmlns="http://www.w3.org/2000/svg">
<path d="M17.334 8.78906C18.7329 9.78303 19.5562 11.343 19.5562 12.9996C19.5562 14.6562 18.7329 16.2161 17.334 17.2101" stroke="white" stroke-width="2" stroke-linecap="round" stroke-linejoin="round"/>
<path d="M20.334 5.63086C22.6833 7.42947 24.0486 10.1377 24.0486 12.9993C24.0486 15.8609 22.6833 18.5691 20.334 20.3677" stroke="white" stroke-width="2" stroke-linecap="round" stroke-linejoin="round"/>
<path d="M7.33333 16.1578H5.11111C4.49746 16.1578 4 15.6866 4 15.1052V10.8947C4 10.3133 4.49746 9.84205 5.11111 9.84205H7.33333L11.2222 5.1052C11.4229 4.73596 11.8777 4.56044 12.2936 4.69177C12.7095 4.82311 12.9622 5.22207 12.8889 5.63152V20.3684C12.9622 20.7778 12.7095 21.1768 12.2936 21.3081C11.8777 21.4394 11.4229 21.2639 11.2222 20.8947L7.33333 16.1578" stroke="white" stroke-width="2" stroke-linecap="round" stroke-linejoin="round"/>
<rect x="0.666992" y="0.368164" width="26.6667" height="25.2632" stroke="#222222"/>
</svg>
