<svg width="44" height="44" viewBox="0 0 44 44" fill="none" xmlns="http://www.w3.org/2000/svg">
<path d="M22.616 32.336C25.568 32.336 28.328 29.696 28.328 25.064C28.328 20.936 26.336 18.248 23.048 18.248C21.704 18.248 20.384 18.896 19.304 19.832L19.424 17.696V12.872H15.896V32H18.656L18.944 30.584H19.04C20.12 31.712 21.416 32.336 22.616 32.336ZM21.848 29.432C21.128 29.432 20.24 29.192 19.424 28.448V22.52C20.312 21.584 21.152 21.128 22.04 21.128C23.912 21.128 24.704 22.544 24.704 25.136C24.704 28.04 23.456 29.432 21.848 29.432Z" fill="#9CA3AF"/>
<rect x="0.5" y="0.5" width="43" height="43" rx="21.5" stroke="#9CA3AF"/>
</svg>
