<svg width="192" height="87" viewBox="0 0 192 87" fill="none" xmlns="http://www.w3.org/2000/svg">
<g clip-path="url(#clip0_1427_48107)">
<path d="M6.95234 81.7234H24.6958L24.7112 78.707H3.94629L6.95234 81.7234Z" fill="#00A4B6"/>
<path d="M36.2729 81.708L36.242 77.5411V38.9814L33.2822 35.9961V77.5411C33.2822 77.5411 33.2822 77.5566 33.2822 77.5722V78.7072V81.7391H36.2883L36.2729 81.708Z" fill="#00A4B6"/>
<path d="M38.6008 82.874L38.5546 38.4836C38.5546 38.1727 38.4312 37.8773 38.2154 37.6596L32.9433 32.3421C32.8508 32.2488 32.7274 32.171 32.6195 32.1244C32.5887 32.1088 32.5425 32.0933 32.4962 32.0777C32.4037 32.0466 32.3112 32.0311 32.2033 32.0155C32.1725 32.0155 32.1571 32 32.1262 32H1.15617C0.524132 32 0 32.5286 0 33.1661C0 33.8036 0.524132 34.3322 1.15617 34.3322H30.9701V76.3592H1.15617C1.01743 76.3592 0.878693 76.3903 0.755367 76.437C0.724536 76.437 0.678289 76.4681 0.647458 76.4836C0.554964 76.5303 0.477885 76.5769 0.400807 76.6547C0.369976 76.6858 0.339144 76.7013 0.308313 76.7324C0.231235 76.8257 0.154157 76.9345 0.0924939 77.0434C0.0924939 77.0434 0.0924939 77.0589 0.0770783 77.0745C0.0308313 77.1989 0 77.3388 0 77.4787C0 77.4787 0 77.5098 0 77.5254C0 77.5565 0 77.572 0 77.6031C0 77.7119 0.0308313 77.8052 0.0616626 77.9141C0.0616626 77.9452 0.0770783 77.9918 0.10791 78.0229C0.169572 78.1473 0.231235 78.2561 0.339144 78.365L5.65755 83.7291C5.87337 83.9468 6.16626 84.0712 6.47458 84.0712H24.7113V85.2684C24.7113 85.7038 24.958 86.108 25.3433 86.3102C25.7287 86.5123 26.2066 86.4656 26.5612 86.2013L29.0123 84.3666L31.4479 86.2013C31.6483 86.3568 31.895 86.4345 32.1416 86.4345C32.3112 86.4345 32.4962 86.3879 32.6504 86.3102C33.0358 86.108 33.2824 85.7038 33.2978 85.2684V84.0712H37.4755C37.4755 84.0712 37.6142 84.0401 37.6913 84.0245C37.7684 84.009 37.8454 84.009 37.9225 83.9779C37.9996 83.9468 38.0458 83.9002 38.1075 83.8535C38.1692 83.8069 38.2308 83.7758 38.2925 83.7291C38.3542 83.6669 38.385 83.5892 38.4312 83.527C38.4621 83.4648 38.5083 83.4182 38.5391 83.356C38.57 83.2782 38.57 83.2005 38.5854 83.1072C38.5854 83.045 38.6316 82.9828 38.6316 82.9051L38.6008 82.874ZM30.9701 82.9206L30.9238 82.8895L29.6906 81.9566C29.4902 81.8011 29.2435 81.7234 28.9969 81.7234C28.7502 81.7234 28.519 81.8011 28.3031 81.9566L27.0545 82.8895L27.0082 82.9206V81.7234V78.6915H30.9546V81.7234V82.8895V82.9206H30.9701ZM24.7113 78.6915V81.7234H6.95246L3.94641 78.6915H24.7113ZM33.2824 78.6915V77.5565C33.2824 77.5565 33.2824 77.5409 33.2824 77.5254V35.9959L36.2422 38.9812V77.5565L36.273 81.7234H33.267V78.6915H33.2824Z" fill="white"/>
<path d="M26.3455 47.4399C26.4379 47.331 25.143 45.9006 23.7248 44.4079C23.5398 44.2058 23.3394 44.0192 23.1544 43.8171C22.954 43.615 22.769 43.4284 22.584 43.2418C21.5974 42.2467 20.7187 41.4227 20.3796 41.1895C20.0404 41.4227 19.1618 42.2467 18.1752 43.2418C17.9902 43.4284 17.7898 43.6305 17.6048 43.8171C17.4198 44.0192 17.2194 44.2058 17.0344 44.4079C15.6007 45.885 14.3058 47.331 14.4137 47.4399L16.464 49.5544C16.464 49.5544 17.3273 48.9169 18.3139 47.953C18.2985 48.9325 18.2831 50.0364 18.2676 51.2025C18.2676 52.3065 18.2368 57.0021 18.2368 57.8106C18.2368 59.1633 18.2368 60.5004 18.2522 61.7598C18.2522 62.9726 18.2831 64.1076 18.2985 65.1027C18.2985 65.4914 18.2985 65.849 18.3139 66.1911C17.1886 66.16 15.7395 66.1444 14.2287 66.1289C13.8125 66.1289 13.3809 66.1289 12.9492 66.1289C11.4848 66.1289 10.0511 66.1444 8.94117 66.1911C8.94117 66.0201 8.94117 65.5536 8.94117 65.1183C8.94117 64.6829 8.94117 64.2631 8.94117 64.1387C8.94117 63.2991 8.92576 62.475 8.89493 61.7598C8.84868 60.5471 8.7716 59.6919 8.64828 59.6919H4.90227C4.71728 59.6919 4.62479 61.8531 4.60938 64.1543C4.60938 64.3097 4.60938 64.9006 4.60938 65.4603C4.60938 66.1911 4.90227 66.8908 5.39557 67.4039L6.67507 68.7255C7.18379 69.2541 7.87749 69.534 8.58661 69.534H18.4526H22.1986C22.3836 69.534 22.4761 63.8433 22.4915 57.8106C22.4915 57.0021 22.4915 56.1935 22.4915 55.385C22.4915 52.6796 22.4607 50.0364 22.4299 47.953C23.4165 48.9169 24.2027 49.6322 24.2798 49.5544L26.33 47.4399H26.3455Z" fill="#00A4B6"/>
<path d="M54.8628 55.5405L57.0827 59.5676C57.1906 59.7541 61.0137 57.6551 65.1297 55.2762C69.2456 57.6551 73.0687 59.7541 73.1766 59.5676L75.3965 55.5405C75.4736 55.4006 69.0452 51.4513 68.3824 51.0471C68.4286 50.1297 68.4594 49.0103 68.4749 47.8597C72.4213 47.813 75.674 47.7042 75.674 47.5176V42.8998C75.674 42.7132 72.375 42.6044 68.3978 42.5577C68.3207 41.0495 68.2128 40.0078 68.0432 40.0078H62.2623C62.0928 40.0078 61.9849 41.0651 61.9078 42.5577C57.9305 42.6044 54.6316 42.7132 54.6316 42.8998V47.5176C54.6316 47.7042 57.8843 47.813 61.8307 47.8597C61.8307 49.0103 61.877 50.1297 61.9232 51.0471C61.2449 51.4513 54.8166 55.4006 54.9091 55.5405H54.8628Z" fill="white"/>
<path d="M84.2914 40.4268H78.5105C78.2638 40.4268 78.1251 43.5831 78.0789 47.3146C78.0789 47.8899 78.0789 52.0724 78.0789 52.6477C78.1251 56.3948 78.2638 59.5356 78.5105 59.5356H84.2914C84.538 59.5356 84.6768 56.3171 84.723 52.5389C86.3416 52.4767 87.3745 52.3989 87.3745 52.2901V47.6723C87.3745 47.5634 86.3262 47.4857 84.723 47.4235C84.6768 43.6297 84.538 40.4268 84.2914 40.4268Z" fill="white"/>
<path d="M70.2169 61.0752C62.9715 61.0752 55.8958 61.6349 55.8958 68.414C55.8958 75.193 62.9715 75.7528 70.2169 75.7528C77.4623 75.7528 84.538 75.193 84.538 68.414C84.538 61.6349 77.4623 61.0752 70.2169 61.0752ZM70.2169 70.8395C60.6592 70.8395 60.6592 69.3158 60.6592 68.414C60.6592 67.5122 60.6592 65.9885 70.2169 65.9885C79.7746 65.9885 79.7746 67.5122 79.7746 68.414C79.7746 69.3158 79.7746 70.8395 70.2169 70.8395Z" fill="white"/>
<path d="M109.064 52.7263C110.143 52.773 111.515 52.8041 112.949 52.8196C113.119 52.8196 113.304 52.8196 113.473 52.8196C113.473 50.9849 113.473 49.1813 113.504 47.4866C113.319 47.4866 113.134 47.4866 112.949 47.4866C111.515 47.4866 110.143 47.5177 109.064 47.5799C108.263 43.584 105.395 41.7959 99.8149 41.7959C93.1553 41.7959 90.3188 44.2992 90.3188 50.1609C90.3188 56.0226 93.1553 58.5258 99.8149 58.5258C105.38 58.5258 108.263 56.7378 109.064 52.7419V52.7263ZM94.8973 50.1453C94.8973 47.6421 94.8973 46.4915 99.8303 46.4915C104.763 46.4915 104.763 47.6421 104.763 50.1453C104.763 52.6486 104.763 53.7992 99.8303 53.7992C94.8973 53.7992 94.8973 52.6486 94.8973 50.1453Z" fill="white"/>
<path d="M143.241 40.8779C143.04 40.8779 142.933 47.4859 142.902 54.918C142.501 54.918 142.1 54.918 141.699 54.918C141.314 54.918 140.944 54.918 140.559 54.918C140.235 54.918 139.926 54.918 139.618 54.9335C139.449 47.6569 138.323 41.6397 132.064 41.6397C125.066 41.6397 124.48 49.1806 124.48 57.5767C124.48 65.9728 125.066 73.5137 132.064 73.5137C138.308 73.5137 139.449 67.5121 139.618 60.251C139.942 60.251 140.281 60.251 140.62 60.251C141.006 60.251 141.376 60.251 141.761 60.251C142.146 60.251 142.532 60.251 142.902 60.2199C142.917 68.0562 143.025 75.3018 143.241 75.3018H147.603C147.819 75.3018 147.927 67.7297 147.943 59.6913C147.943 58.6184 147.943 57.5456 147.943 56.4728C147.943 48.4343 147.819 40.8623 147.603 40.8623H143.241V40.8779ZM132.064 68.616C130.939 68.616 129.243 68.616 129.243 57.5923C129.243 46.5685 130.939 46.5685 132.064 46.5685C133.19 46.5685 134.886 46.5685 134.886 57.5923C134.886 68.616 133.19 68.616 132.064 68.616Z" fill="white"/>
<path d="M150.748 40.8779C150.533 40.8779 150.425 48.4499 150.409 56.4884C150.409 57.5612 150.409 58.6341 150.409 59.7069C150.409 67.7454 150.533 75.3174 150.748 75.3174H155.111C155.327 75.3174 155.435 67.7454 155.45 59.7069C155.45 58.6341 155.45 57.5612 155.45 56.4884C155.45 48.4499 155.327 40.8779 155.111 40.8779H150.748Z" fill="white"/>
<path d="M186.327 62.5679C184.447 62.5368 177.664 62.4746 176.616 62.4746C175.614 62.4746 174.596 62.4746 173.594 62.4746C172.546 62.4746 165.778 62.5213 163.882 62.5679C160.922 62.6301 158.934 62.7234 158.934 62.8322V67.4501C158.934 67.5744 160.907 67.6522 163.851 67.7144C163.851 68.0875 164.052 75.7062 164.298 75.7062H170.079C170.326 75.7062 170.511 68.1031 170.526 67.7921C171.528 67.7921 172.561 67.7921 173.594 67.7921C174.596 67.7921 175.614 67.7921 176.616 67.7921C177.648 67.7921 178.681 67.7921 179.683 67.7921C179.683 68.1342 179.884 75.7062 180.13 75.7062H185.911C186.158 75.7062 186.343 68.0409 186.358 67.7144C189.318 67.6522 191.276 67.5744 191.276 67.4501V62.8322C191.276 62.7078 189.303 62.6301 186.327 62.5679Z" fill="white"/>
<path d="M176.415 47.6256C182.967 47.6256 189.149 47.4857 189.149 47.268V42.6501C189.149 42.4325 161.416 42.4014 161.416 42.4014C161.246 42.4014 161.154 42.4947 161.108 42.619C161.092 42.6346 161.061 44.547 161.061 44.547V56.3793C161.061 56.3793 161.077 58.2917 161.108 58.3073C161.154 58.4161 161.231 58.5249 161.416 58.5249C161.416 58.5249 189.149 58.4938 189.149 58.2762V53.6583C189.149 53.4406 182.982 53.3163 176.415 53.3007C175.537 53.3007 174.658 53.3007 173.779 53.3007C171.051 53.3007 168.399 53.3318 166.21 53.3785C166.21 53.0364 166.21 51.7614 166.21 50.4865C166.21 49.2115 166.21 47.9366 166.21 47.5945C168.384 47.6411 171.051 47.6567 173.779 47.6722C174.658 47.6722 175.537 47.6722 176.415 47.6722V47.6256Z" fill="white"/>
<path d="M99.075 63.8588C99.1212 64.9472 99.1366 66.2222 99.152 67.5282C99.152 67.7148 99.152 68.3678 99.152 69.0364C100.94 69.0675 103.006 69.0986 105.149 69.0986C105.935 69.0986 106.721 69.0986 107.492 69.0986C109.681 69.0986 111.777 69.0675 113.581 69.0364C113.581 69.0364 113.581 69.0209 113.581 69.0053C113.55 67.4505 113.535 65.7091 113.519 63.8433V63.8122C111.716 63.7811 109.65 63.75 107.492 63.75C106.706 63.75 105.92 63.75 105.149 63.75C102.975 63.75 100.894 63.7811 99.0904 63.8122L99.075 63.8588Z" fill="white"/>
<path d="M126.083 41.671C126.237 41.5155 124.233 39.2766 122.013 36.991C121.72 36.68 121.428 36.3846 121.119 36.0736C120.826 35.7627 120.518 35.4673 120.225 35.1718C118.699 33.6481 117.342 32.3576 116.803 32C116.263 32.3576 114.907 33.6481 113.381 35.1718C113.088 35.4673 112.795 35.7627 112.486 36.0736C112.194 36.3846 111.885 36.68 111.592 36.991C109.388 39.2921 107.368 41.5155 107.523 41.671L110.698 44.9362C110.806 45.045 112.024 43.9566 113.55 42.4484C113.519 43.9566 113.504 45.6669 113.488 47.4705C113.473 49.1653 113.458 56.4574 113.458 57.7013C113.458 59.8003 113.458 61.8682 113.488 63.8118V63.8429C113.504 65.6931 113.535 67.4501 113.55 69.0049C113.55 69.5957 113.566 70.1555 113.581 70.6841C111.839 70.6375 109.588 70.6064 107.276 70.5908C106.628 70.5908 105.966 70.5908 105.303 70.5908C103.037 70.5908 100.832 70.6219 99.1056 70.6841C99.1056 70.4043 99.1056 69.7046 99.1056 69.036C99.1056 68.3674 99.1056 67.7144 99.1056 67.5278C99.1056 66.2218 99.0748 64.9468 99.0286 63.8584C98.9515 61.9771 98.8282 60.6555 98.6586 60.6555H92.8777C92.6002 60.6555 92.4461 63.9984 92.4307 67.5589C92.4307 67.7921 92.4307 68.7095 92.4307 69.5957C92.4307 70.7308 92.8777 71.8036 93.6639 72.5966L95.6371 74.6334C96.4233 75.4419 97.487 75.8928 98.5969 75.8928H113.858H119.639C119.917 75.8928 120.071 67.0925 120.086 57.748C120.086 56.5041 120.086 55.2447 120.086 54.0008C120.086 49.8028 120.04 45.7291 119.978 42.4951C121.505 43.9877 122.722 45.0917 122.83 44.9828L126.006 41.7177L126.083 41.671Z" fill="#00A4B6"/>
</g>
<defs>
<clipPath id="clip0_1427_48107">
<rect width="191.276" height="86.4355" fill="white"/>
</clipPath>
</defs>
</svg>
