<svg width="16" height="17" viewBox="0 0 16 17" fill="none" xmlns="http://www.w3.org/2000/svg">
<path fill-rule="evenodd" clip-rule="evenodd" d="M3.33333 8.5H2L8 2.5L14 8.5H12.6667" fill="#0054A6"/>
<path d="M3.33333 8.5H2L8 2.5L14 8.5H12.6667" stroke="#0054A6" stroke-linecap="round" stroke-linejoin="round"/>
<path fill-rule="evenodd" clip-rule="evenodd" d="M3.33334 8.5V13.1667C3.33334 13.903 3.9303 14.5 4.66668 14.5H11.3333C12.0697 14.5 12.6667 13.903 12.6667 13.1667V8.5" fill="#0054A6"/>
<path d="M3.33334 8.5V13.1667C3.33334 13.903 3.9303 14.5 4.66668 14.5H11.3333C12.0697 14.5 12.6667 13.903 12.6667 13.1667V8.5" stroke="#0054A6" stroke-linecap="round" stroke-linejoin="round"/>
<path fill-rule="evenodd" clip-rule="evenodd" d="M6 14.4998V10.4998C6 9.76346 6.59695 9.1665 7.33333 9.1665H8.66667C9.40305 9.1665 10 9.76346 10 10.4998V14.4998" fill="white"/>
<path d="M6 14.4998V10.4998C6 9.76346 6.59695 9.1665 7.33333 9.1665H8.66667C9.40305 9.1665 10 9.76346 10 10.4998V14.4998" stroke="#0054A6" stroke-linecap="round" stroke-linejoin="round"/>
</svg>
