<svg width="147" height="51" viewBox="0 0 147 51" fill="none" xmlns="http://www.w3.org/2000/svg">
<g clip-path="url(#clip0_1321_6213)">
<path d="M42.012 18.0832L43.7204 21.1767C43.8035 21.32 46.7459 19.7076 49.9136 17.8802C53.0814 19.7076 56.0238 21.32 56.1069 21.1767L57.8153 18.0832C57.8747 17.9757 52.9272 14.942 52.417 14.6315C52.4526 13.9268 52.4764 13.0668 52.4882 12.183C55.5255 12.1472 58.0289 12.0635 58.0289 11.9202V8.37291C58.0289 8.22959 55.4899 8.14598 52.4289 8.11015C52.3696 6.9516 52.2865 6.15137 52.156 6.15137H47.7069C47.5764 6.15137 47.4933 6.96355 47.434 8.11015C44.373 8.14598 41.834 8.22959 41.834 8.37291V11.9202C41.834 12.0635 44.3374 12.1472 47.3747 12.183C47.3747 13.0668 47.4103 13.9268 47.4459 14.6315C46.9238 14.942 41.9764 17.9757 42.0475 18.0832H42.012Z" fill="black"/>
<path d="M64.6612 6.47363H60.2121C60.0223 6.47363 59.9155 8.89822 59.8799 11.7647C59.8799 12.2067 59.8799 15.4195 59.8799 15.8615C59.9155 18.7399 60.0223 21.1526 60.2121 21.1526H64.6612C64.8511 21.1526 64.9578 18.6802 64.9934 15.7778C66.2392 15.7301 67.0341 15.6704 67.0341 15.5867V12.0394C67.0341 11.9558 66.2273 11.8961 64.9934 11.8483C64.9578 8.93405 64.8511 6.47363 64.6612 6.47363Z" fill="black"/>
<path d="M53.8287 22.335C48.2524 22.335 42.8066 22.7649 42.8066 27.9724C42.8066 33.1799 48.2524 33.6099 53.8287 33.6099C59.4049 33.6099 64.8507 33.1799 64.8507 27.9724C64.8507 22.7649 59.4049 22.335 53.8287 22.335ZM53.8287 29.8357C46.4727 29.8357 46.4727 28.6652 46.4727 27.9724C46.4727 27.2797 46.4727 26.1092 53.8287 26.1092C61.1846 26.1092 61.1846 27.2797 61.1846 27.9724C61.1846 28.6652 61.1846 29.8357 53.8287 29.8357Z" fill="black"/>
<path d="M83.7269 15.9209C84.5574 15.9567 85.6134 15.9806 86.7167 15.9926C86.8473 15.9926 86.9896 15.9926 87.1201 15.9926C87.1201 14.5832 87.1201 13.1977 87.1439 11.8958C87.0015 11.8958 86.8591 11.8958 86.7167 11.8958C85.6134 11.8958 84.5574 11.9197 83.7269 11.9675C83.11 8.89795 80.9032 7.52441 76.6083 7.52441C71.4829 7.52441 69.2998 9.44737 69.2998 13.9502C69.2998 18.453 71.4829 20.3759 76.6083 20.3759C80.8913 20.3759 83.11 19.0024 83.7269 15.9328V15.9209ZM72.8235 13.9382C72.8235 12.0153 72.8235 11.1314 76.6201 11.1314C80.4168 11.1314 80.4168 12.0153 80.4168 13.9382C80.4168 15.8612 80.4168 16.745 76.6201 16.745C72.8235 16.745 72.8235 15.8612 72.8235 13.9382Z" fill="black"/>
<path d="M110.031 6.81956C109.877 6.81956 109.793 11.8957 109.77 17.6048C109.461 17.6048 109.153 17.6048 108.844 17.6048C108.548 17.6048 108.263 17.6048 107.966 17.6048C107.717 17.6048 107.48 17.6048 107.243 17.6168C107.112 12.0271 106.246 7.40481 101.429 7.40481C96.0426 7.40481 95.5918 13.1975 95.5918 19.6472C95.5918 26.0968 96.0426 31.8896 101.429 31.8896C106.234 31.8896 107.112 27.2793 107.243 21.7015C107.492 21.7015 107.753 21.7015 108.014 21.7015C108.31 21.7015 108.595 21.7015 108.892 21.7015C109.188 21.7015 109.485 21.7015 109.77 21.6776C109.782 27.6973 109.865 33.2631 110.031 33.2631H113.388C113.555 33.2631 113.638 27.4465 113.649 21.2716C113.649 20.4474 113.649 19.6233 113.649 18.7992C113.649 12.6242 113.555 6.80762 113.388 6.80762H110.031V6.81956ZM101.429 28.1273C100.563 28.1273 99.2579 28.1273 99.2579 19.6591C99.2579 11.191 100.563 11.191 101.429 11.191C102.295 11.191 103.6 11.191 103.6 19.6591C103.6 28.1273 102.295 28.1273 101.429 28.1273Z" fill="black"/>
<path d="M115.809 6.82031C115.643 6.82031 115.56 12.6369 115.548 18.8119C115.548 19.636 115.548 20.4601 115.548 21.2842C115.548 27.4592 115.643 33.2758 115.809 33.2758H119.166C119.333 33.2758 119.416 27.4592 119.428 21.2842C119.428 20.4601 119.428 19.636 119.428 18.8119C119.428 12.6369 119.333 6.82031 119.166 6.82031H115.809Z" fill="black"/>
<path d="M143.191 23.4818C141.744 23.4579 136.524 23.4102 135.717 23.4102C134.946 23.4102 134.163 23.4102 133.391 23.4102C132.585 23.4102 127.376 23.446 125.917 23.4818C123.639 23.5296 122.108 23.6013 122.108 23.6849V27.2322C122.108 27.3277 123.627 27.3874 125.893 27.4352C125.893 27.7219 126.047 33.5743 126.237 33.5743H130.686C130.876 33.5743 131.019 27.7338 131.03 27.4949C131.802 27.4949 132.597 27.4949 133.391 27.4949C134.163 27.4949 134.946 27.4949 135.717 27.4949C136.512 27.4949 137.307 27.4949 138.078 27.4949C138.078 27.7577 138.232 33.5743 138.422 33.5743H142.871C143.061 33.5743 143.203 27.686 143.215 27.4352C145.493 27.3874 147 27.3277 147 27.2322V23.6849C147 23.5893 145.481 23.5296 143.191 23.4818Z" fill="black"/>
<path d="M135.563 12.0033C140.605 12.0033 145.363 11.8959 145.363 11.7286V8.18133C145.363 8.01412 124.019 7.99023 124.019 7.99023C123.888 7.99023 123.817 8.0619 123.782 8.15745C123.77 8.16939 123.746 9.63848 123.746 9.63848V18.7277C123.746 18.7277 123.758 20.1968 123.782 20.2087C123.817 20.2923 123.877 20.3759 124.019 20.3759C124.019 20.3759 145.363 20.3521 145.363 20.1848V16.6375C145.363 16.4703 140.617 16.3748 135.563 16.3628C134.887 16.3628 134.211 16.3628 133.534 16.3628C131.434 16.3628 129.394 16.3867 127.709 16.4226C127.709 16.1598 127.709 15.1804 127.709 14.201C127.709 13.2216 127.709 12.2422 127.709 11.9795C129.382 12.0153 131.434 12.0272 133.534 12.0392C134.211 12.0392 134.887 12.0392 135.563 12.0392V12.0033Z" fill="black"/>
<path d="M76.0391 24.4733C76.0747 25.3093 76.0865 26.2887 76.0984 27.292C76.0984 27.4353 76.0984 27.937 76.0984 28.4505C77.4747 28.4744 79.0645 28.4983 80.7136 28.4983C81.3187 28.4983 81.9238 28.4983 82.517 28.4983C84.2018 28.4983 85.8153 28.4744 87.2035 28.4505C87.2035 28.4505 87.2035 28.4386 87.2035 28.4266C87.1797 27.2323 87.1679 25.8946 87.156 24.4613V24.4374C85.7679 24.4135 84.1781 24.3896 82.517 24.3896C81.912 24.3896 81.3069 24.3896 80.7136 24.3896C79.0408 24.3896 77.4391 24.4135 76.0509 24.4374L76.0391 24.4733Z" fill="black"/>
<path d="M96.8258 7.42904C96.9444 7.3096 95.4021 5.5897 93.6936 3.83396C93.4682 3.59508 93.2427 3.36815 93.0054 3.12927C92.78 2.8904 92.5427 2.66347 92.3173 2.43653C91.1427 1.26604 90.0987 0.274707 89.6834 0C89.2682 0.274707 88.2241 1.26604 87.0495 2.43653C86.8241 2.66347 86.5987 2.8904 86.3614 3.12927C86.136 3.36815 85.8987 3.59508 85.6732 3.83396C83.9766 5.60164 82.4224 7.3096 82.541 7.42904L84.9851 9.93724C85.0682 10.0208 86.0054 9.18478 87.18 8.02623C87.1563 9.18478 87.1444 10.4986 87.1326 11.8841C87.1207 13.1859 87.1088 18.7876 87.1088 19.7431C87.1088 21.3555 87.1088 22.944 87.1326 24.437V24.4609C87.1444 25.8822 87.1682 27.2318 87.18 28.4262C87.18 28.8801 87.1919 29.3101 87.2037 29.7162C85.8631 29.6803 84.1309 29.6564 82.3512 29.6445C81.8529 29.6445 81.3427 29.6445 80.8326 29.6445C79.0885 29.6445 77.3919 29.6684 76.0631 29.7162C76.0631 29.5012 76.0631 28.9637 76.0631 28.4501C76.0631 27.9365 76.0631 27.4349 76.0631 27.2916C76.0631 26.2883 76.0393 25.3089 76.0037 24.4728C75.9444 23.0276 75.8495 22.0124 75.719 22.0124H71.2699C71.0563 22.0124 70.9376 24.5803 70.9258 27.3155C70.9258 27.4946 70.9258 28.1993 70.9258 28.8801C70.9258 29.752 71.2699 30.5761 71.8749 31.1852L73.3936 32.7499C73.9987 33.371 74.8173 33.7173 75.6715 33.7173H87.4173H91.8665C92.08 33.7173 92.1987 26.9571 92.2105 19.7789C92.2105 18.8234 92.2105 17.856 92.2105 16.9005C92.2105 13.6756 92.1749 10.5464 92.1275 8.06206C93.3021 9.20867 94.2393 10.0567 94.3224 9.97307L96.7665 7.46487L96.8258 7.42904Z" fill="#00A4B6"/>
<path d="M45.1086 48.5039C45.1679 49.2563 45.6544 49.758 46.4255 49.758C47.1374 49.758 47.6476 49.2683 47.6476 48.6353C47.6476 47.9306 47.2086 47.5842 45.951 47.0706C44.5628 46.4734 43.9103 45.6135 43.9103 44.5147C43.9103 43.2606 44.7764 42.2334 46.4137 42.2334C47.9086 42.2334 48.834 43.1172 48.9764 44.5266H47.5408C47.4103 43.8458 46.995 43.4756 46.3425 43.4756C45.7493 43.4756 45.334 43.9294 45.334 44.5027C45.334 45.1118 45.7967 45.5777 47.0069 46.0674C48.4544 46.6526 49.0713 47.4648 49.0713 48.5755C49.0713 49.8894 48.1459 51.0121 46.4018 51.0121C44.8476 51.0121 43.7323 50.0327 43.6611 48.5158H45.1086V48.5039Z" fill="#748597"/>
<path d="M51.9311 50.8327V43.6425H49.8311V42.4004H55.4785V43.6425H53.3666V50.8327H51.9311Z" fill="#748597"/>
<path d="M61.3511 50.8327H59.9274L59.4054 48.8262H57.1155L56.5935 50.8327H55.1816L57.4952 42.4004H59.0138L61.3393 50.8327H61.3511ZM57.4477 47.5721H59.0969L58.2783 44.3592L57.4477 47.5721Z" fill="#748597"/>
<path d="M64.5309 42.4006C66.5122 42.4006 67.4495 43.4278 67.4495 44.9327C67.4495 45.9479 66.9986 46.7601 66.097 47.1901L67.9359 50.821H66.2868L64.7088 47.4887H63.7715V50.821H62.3359V42.7828C62.3359 42.5201 62.4664 42.3887 62.7156 42.3887H64.519L64.5309 42.4006ZM64.3766 46.2585C65.5037 46.2585 66.0139 45.7568 66.0139 44.9327C66.0139 44.0727 65.5037 43.6189 64.3885 43.6189H63.7715V46.2585H64.3766Z" fill="#748597"/>
<path d="M70.7475 50.8327V43.6425H68.6475V42.4004H74.2949V43.6425H72.1831V50.8327H70.7475Z" fill="#748597"/>
<path d="M80.7849 42.4004V48.432C80.7849 49.8772 79.7289 50.9999 78.0798 50.9999C76.4306 50.9999 75.3984 49.8772 75.3984 48.4201V42.4004H76.834V48.3962C76.834 49.2084 77.3205 49.7458 78.0798 49.7458C78.8391 49.7458 79.3374 49.1964 79.3374 48.3962V42.4004H80.7849Z" fill="#748597"/>
<path d="M84.3558 42.4004C86.4202 42.4004 87.3812 43.4634 87.3812 45.028C87.3812 46.5927 86.4083 47.6795 84.3558 47.6795H83.6202V50.8327H82.1846V42.7945C82.1846 42.5318 82.3151 42.4004 82.5642 42.4004H84.3558ZM84.2608 46.4374C85.4117 46.4374 85.9456 45.9238 85.9456 45.0161C85.9456 44.1084 85.4117 43.6187 84.2727 43.6187H83.6202V46.4374H84.2608Z" fill="#748597"/>
<path d="M95.8882 42.4004V43.6425H92.3526V45.7805H94.6068V47.0107H92.3526V48.9934C92.3526 49.1247 92.3763 49.1845 92.4594 49.2681L92.6611 49.5069C92.7441 49.5786 92.8034 49.6025 92.8865 49.6025H95.8882V50.8327H92.4C92.0204 50.8327 91.8899 50.7849 91.6407 50.5102L91.1899 50.0205C90.9763 49.7697 90.917 49.6383 90.917 49.2203V42.8065C90.917 42.5437 91.0475 42.4123 91.2967 42.4123H95.8763L95.8882 42.4004Z" fill="#748597"/>
<path d="M102.461 47.8824C102.461 49.877 101.536 50.8325 99.436 50.8325H97.5496C97.2886 50.8325 97.1699 50.6892 97.1699 50.4264V42.8063C97.1699 42.5435 97.3004 42.4121 97.5496 42.4121H99.436C101.583 42.4121 102.461 43.3557 102.461 45.3742V47.9063V47.8824ZM101.026 45.3742C101.026 44.1201 100.563 43.6423 99.3886 43.6423H98.6055V49.5784H99.3886C100.563 49.5784 101.026 49.1006 101.026 47.8465V45.3742Z" fill="#748597"/>
<path d="M109.105 42.4004V48.432C109.105 49.8772 108.049 50.9999 106.4 50.9999C104.751 50.9999 103.719 49.8772 103.719 48.4201V42.4004H105.154V48.3962C105.154 49.2084 105.641 49.7458 106.4 49.7458C107.159 49.7458 107.658 49.1964 107.658 48.3962V42.4004H109.105Z" fill="#748597"/>
<path d="M114.598 44.8133C114.503 43.9891 113.993 43.4636 113.245 43.4636C112.367 43.4636 111.881 44.1802 111.881 45.0999V48.062C111.881 49.0294 112.391 49.7341 113.281 49.7341C114.005 49.7341 114.515 49.1966 114.622 48.48H116.057C115.951 50.0327 114.776 50.9882 113.293 50.9882C111.442 50.9882 110.434 49.7938 110.434 48.0381V45.1716C110.434 43.4636 111.395 42.2334 113.257 42.2334C114.847 42.2334 115.903 43.2845 116.022 44.8133H114.586H114.598Z" fill="#748597"/>
<path d="M122.821 50.8327H121.397L120.875 48.8262H118.585L118.063 50.8327H116.651L118.965 42.4004H120.484L122.809 50.8327H122.821ZM118.917 47.5721H120.567L119.748 44.3592L118.917 47.5721Z" fill="#748597"/>
<path d="M124.648 50.8327V43.6425H122.548V42.4004H128.195V43.6425H126.083V50.8327H124.648Z" fill="#748597"/>
<path d="M129.132 42.4004H133.617V43.6425H132.087V49.6025H133.724V50.8327H129.002V49.6025H130.639V43.6425H129.121V42.4004H129.132Z" fill="#748597"/>
<path d="M140.285 47.9304C140.285 49.8175 139.241 50.9999 137.354 50.9999C135.468 50.9999 134.436 49.8294 134.436 47.9184V45.3147C134.436 43.4156 135.48 42.2451 137.354 42.2451C139.229 42.2451 140.285 43.4156 140.285 45.3147V47.9304ZM138.849 45.3027C138.849 44.192 138.268 43.4634 137.354 43.4634C136.441 43.4634 135.883 44.192 135.883 45.3027V47.9423C135.883 49.0531 136.464 49.7578 137.354 49.7578C138.244 49.7578 138.849 49.0531 138.849 47.9423V45.3027Z" fill="#748597"/>
<path d="M147 50.4149C147 50.6896 146.87 50.821 146.62 50.821H145.363L142.978 44.9446V50.821H141.59V42.7828C141.59 42.5201 141.72 42.3887 141.97 42.3887H143.263L145.612 48.2889V42.3887H147V50.4149Z" fill="#748597"/>
<path d="M5.35067 43.7021H19.0066L19.0185 41.373H3.03711L5.35067 43.7021Z" fill="#00A4B6"/>
<path d="M27.9169 43.6902L27.8932 40.4892V10.8567L25.6152 8.56348V40.4773C25.6152 40.4773 25.6152 40.4892 25.6152 40.5012V41.3731V43.7021H27.9288L27.9169 43.6902Z" fill="#00A4B6"/>
<path d="M29.7085 44.586L29.6729 10.4864C29.6729 10.2475 29.578 10.0206 29.4119 9.8534L25.3542 5.76862C25.2831 5.69696 25.1881 5.63724 25.1051 5.60141C25.0814 5.58947 25.0458 5.57752 25.0102 5.56558C24.939 5.54169 24.8678 5.52975 24.7847 5.5178C24.761 5.5178 24.7492 5.50586 24.7254 5.50586H0.889831C0.40339 5.50586 0 5.91195 0 6.40164C0 6.89134 0.40339 7.29743 0.889831 7.29743H23.8356V39.5815H0.889831C0.783051 39.5815 0.676271 39.6054 0.581356 39.6412C0.557627 39.6412 0.522034 39.6651 0.498305 39.6771C0.427119 39.7129 0.367797 39.7487 0.308475 39.8084C0.284746 39.8323 0.261017 39.8443 0.237288 39.8682C0.177966 39.9398 0.118644 40.0234 0.0711864 40.107C0.0711864 40.107 0.0711864 40.119 0.059322 40.1309C0.0237288 40.2265 0 40.334 0 40.4415C0 40.4415 0 40.4653 0 40.4773C0 40.5012 0 40.5131 0 40.537C0 40.6206 0.0237288 40.6923 0.0474576 40.7759C0.0474576 40.7998 0.059322 40.8356 0.0830508 40.8595C0.130508 40.955 0.177966 41.0386 0.261017 41.1222L4.35424 45.2429C4.52034 45.4101 4.74576 45.5056 4.98305 45.5056H19.0186V46.4253C19.0186 46.7597 19.2085 47.0703 19.5051 47.2255C19.8017 47.3808 20.1695 47.345 20.4424 47.1419L22.3288 45.7326L24.2034 47.1419C24.3576 47.2614 24.5475 47.3211 24.7373 47.3211C24.8678 47.3211 25.0102 47.2852 25.1288 47.2255C25.4254 47.0703 25.6153 46.7597 25.6271 46.4253V45.5056H28.8424C28.8424 45.5056 28.9492 45.4817 29.0085 45.4698C29.0678 45.4578 29.1271 45.4578 29.1864 45.434C29.2458 45.4101 29.2814 45.3742 29.3288 45.3384C29.3763 45.3026 29.4237 45.2787 29.4712 45.2429C29.5186 45.1951 29.5424 45.1354 29.578 45.0876C29.6017 45.0398 29.6373 45.004 29.661 44.9562C29.6847 44.8965 29.6847 44.8368 29.6966 44.7651C29.6966 44.7173 29.7322 44.6696 29.7322 44.6098L29.7085 44.586ZM23.8356 44.6218L23.8 44.5979L22.8508 43.8813C22.6966 43.7618 22.5068 43.7021 22.3169 43.7021C22.1271 43.7021 21.9492 43.7618 21.7831 43.8813L20.822 44.5979L20.7864 44.6218V43.7021V41.3731H23.8237V43.7021V44.5979V44.6218H23.8356ZM19.0186 41.3731V43.7021H5.35085L3.03729 41.3731H19.0186ZM25.6153 41.3731V40.5012C25.6153 40.5012 25.6153 40.4892 25.6153 40.4773V8.56347L27.8932 10.8567V40.4892L27.917 43.6902H25.6034V41.3611L25.6153 41.3731Z" fill="black"/>
<path d="M20.2767 17.3659C20.3479 17.2823 19.3512 16.1834 18.2597 15.0368C18.1173 14.8815 17.9631 14.7382 17.8207 14.583C17.6665 14.4277 17.5241 14.2844 17.3818 14.141C16.6224 13.3766 15.9462 12.7436 15.6851 12.5645C15.4241 12.7436 14.7479 13.3766 13.9885 14.141C13.8462 14.2844 13.6919 14.4396 13.5495 14.583C13.4072 14.7382 13.2529 14.8815 13.1106 15.0368C12.0072 16.1715 11.0106 17.2823 11.0936 17.3659L12.6716 18.9902C12.6716 18.9902 13.336 18.5005 14.0953 17.76C14.0834 18.5125 14.0716 19.3605 14.0597 20.2563C14.0597 21.1043 14.036 24.7113 14.036 25.3324C14.036 26.3715 14.036 27.3986 14.0479 28.3661C14.0479 29.2977 14.0716 30.1696 14.0834 30.934C14.0834 31.2326 14.0834 31.5073 14.0953 31.7701C13.2292 31.7462 12.114 31.7342 10.9512 31.7223C10.6309 31.7223 10.2987 31.7223 9.9665 31.7223C8.83938 31.7223 7.73599 31.7342 6.88175 31.7701C6.88175 31.6387 6.88175 31.2804 6.88175 30.9459C6.88175 30.6115 6.88175 30.289 6.88175 30.1935C6.88175 29.5485 6.86989 28.9155 6.84616 28.3661C6.81056 27.4345 6.75124 26.7776 6.65633 26.7776H3.77328C3.6309 26.7776 3.55972 28.4378 3.54785 30.2054C3.54785 30.3249 3.54785 30.7787 3.54785 31.2087C3.54785 31.7701 3.77328 32.3075 4.15294 32.7017L5.13768 33.7169C5.52921 34.123 6.06311 34.338 6.60887 34.338H14.2021H17.0851C17.2275 34.338 17.2987 29.9666 17.3106 25.3324C17.3106 24.7113 17.3106 24.0902 17.3106 23.4691C17.3106 21.3909 17.2868 19.3605 17.2631 17.76C18.0224 18.5005 18.6275 19.0499 18.6868 18.9902L20.2648 17.3659H20.2767Z" fill="#00A4B6"/>
</g>
<defs>
<clipPath id="clip0_1321_6213">
<rect width="147" height="51" fill="white"/>
</clipPath>
</defs>
</svg>
